<svg xmlns="http://www.w3.org/2000/svg" width="256" height="256" viewBox="0 0 256 256" fill="none">
  <rect x="12" y="12" width="232" height="232" rx="52" fill="#0A0D12"/>
  <rect x="12" y="12" width="232" height="232" rx="52" stroke="#1D2430" stroke-width="2"/>
  <path d="M58 48C58 41.3726 63.3726 36 70 36H92C98.6274 36 104 41.3726 104 48V208C104 214.627 98.6274 220 92 220H70C63.3726 220 58 214.627 58 208V48Z" fill="#6ED8FF"/>
  <path d="M122 50C122 42.268 128.268 36 136 36H163C192.258 36 212 52.1404 212 78.5C212 96.4596 203.173 109.043 188.169 115.653C207.647 121.638 219 136.06 219 158.5C219 189.548 196.716 210 162 210H136C128.268 210 122 203.732 122 196V50ZM158.5 104C173.789 104 183.5 95.2394 183.5 82C183.5 68.6198 173.789 61 158.5 61H151V104H158.5ZM161 185C178.212 185 188.5 176.05 188.5 160C188.5 144.133 178.212 135 161 135H151V185H161Z" fill="#F4F1EB"/>
</svg>
